<svg xmlns="http://www.w3.org/2000/svg" xmlns:xlink="http://www.w3.org/1999/xlink" viewBox="0 0 69.6 61.2" enable-background="new 0 0 69.6 61.2"><defs><path id="a" d="M.1 0h69.4v61.2H.1z"/></defs><clipPath id="c"><use xlink:href="#a" overflow="visible"/></clipPath><defs><filter id="b" filterUnits="userSpaceOnUse" x="-.9" y="-9" width="66.9" height="79.2"><feFlood result="back" flood-color="#fff" flood-opacity="1"/><feBlend in="SourceGraphic" in2="back"/></filter></defs><mask maskUnits="userSpaceOnUse" x="-.9" y="-9" width="66.9" height="79.2" id="e"><g filter="url(#b)"><linearGradient id="d" gradientUnits="userSpaceOnUse" x1="-501.466" y1="419.632" x2="-500.466" y2="419.632" gradientTransform="matrix(0 -84.1312 -84.1312 0 35339.008 -42205.004)"><stop offset="0" stop-color="#fff"/><stop offset="1"/></linearGradient><path clip-path="url(#c)" fill="url(#d)" d="M.1 0h69.4v61.2H.1z"/></g></mask><g clip-path="url(#c)" mask="url(#e)"><defs><path id="f" d="M-.9-9H66v79.2H-.9z"/></defs><clipPath id="g"><use xlink:href="#f" overflow="visible"/></clipPath><path d="M8.8 59.7H7.5c-3.2 0-5.8-2.6-5.8-5.8V7.3c0-3.2 2.6-5.8 5.8-5.8h44.3c3.2 0 5.8 2.6 5.8 5.8v46.5c0 3.2-2.6 5.8-5.8 5.8h-43z" clip-path="url(#g)" fill="none" stroke="#fcd02a" stroke-width="3" stroke-miterlimit="10"/></g><defs><filter id="h" filterUnits="userSpaceOnUse" x="-6" y="-2.9" width="84.6" height="61.9"><feFlood result="back" flood-color="#fff" flood-opacity="1"/><feBlend in="SourceGraphic" in2="back"/></filter></defs><mask maskUnits="userSpaceOnUse" x="-6" y="-2.9" width="84.6" height="61.9" id="j"><g filter="url(#h)"><linearGradient id="i" gradientUnits="userSpaceOnUse" x1="-489.797" y1="407.77" x2="-488.797" y2="407.77" gradientTransform="matrix(0 -22.9847 -22.9847 0 9407.338 -11266.397)"><stop offset="0" stop-color="#fff"/><stop offset="1"/></linearGradient><path clip-path="url(#c)" fill="url(#i)" d="M.1 0h69.4v61.2H.1z"/></g></mask><g clip-path="url(#c)" mask="url(#j)"><defs><path id="k" d="M-6-2.9h84.6V59H-6z"/></defs><clipPath id="l"><use xlink:href="#k" overflow="visible"/></clipPath><path clip-path="url(#l)" fill="none" stroke="#fff" stroke-width="15" stroke-miterlimit="10" d="M7.8 27.7l23.6 19.8L63.8 8.9"/></g><defs><filter id="m" filterUnits="userSpaceOnUse" x="-2.6" y="1.5" width="77.5" height="51.7"><feFlood result="back" flood-color="#fff" flood-opacity="1"/><feBlend in="SourceGraphic" in2="back"/></filter></defs><mask maskUnits="userSpaceOnUse" x="-2.6" y="1.5" width="77.5" height="51.7" id="o"><g filter="url(#m)"><linearGradient id="n" gradientUnits="userSpaceOnUse" x1="-489.797" y1="407.778" x2="-488.797" y2="407.778" gradientTransform="matrix(0 -22.9847 -22.9847 0 9407.523 -11265.251)"><stop offset="0" stop-color="#fff"/><stop offset="1"/></linearGradient><path clip-path="url(#c)" fill="url(#n)" d="M.1 0h69.4v61.2H.1z"/></g></mask><g clip-path="url(#c)" mask="url(#o)"><defs><path id="p" d="M-2.6 1.5h77.5v51.7H-2.6z"/></defs><clipPath id="q"><use xlink:href="#p" overflow="visible"/></clipPath><path clip-path="url(#q)" fill="none" stroke="#0367a9" stroke-width="5" stroke-miterlimit="10" d="M8 28.9l23.6 19.7L64 10.1"/></g></svg>